<?xml version="1.0" encoding="UTF-8" standalone="no"?>
<svg
   id="icon"
   viewBox="0 0 32 32"
   version="1.1"
   sodipodi:docname="eyedropper.svg"
   inkscape:version="1.2.1 (8a69933317, 2022-10-28, custom)"
   xmlns:inkscape="http://www.inkscape.org/namespaces/inkscape"
   xmlns:sodipodi="http://sodipodi.sourceforge.net/DTD/sodipodi-0.dtd"
   xmlns="http://www.w3.org/2000/svg"
   xmlns:svg="http://www.w3.org/2000/svg">
  <sodipodi:namedview
     id="namedview1978"
     pagecolor="#505050"
     bordercolor="#eeeeee"
     borderopacity="1"
     inkscape:showpageshadow="0"
     inkscape:pageopacity="0"
     inkscape:pagecheckerboard="0"
     inkscape:deskcolor="#505050"
     showgrid="false"
     inkscape:zoom="32.09375"
     inkscape:cx="14.192795"
     inkscape:cy="15.984421"
     inkscape:window-width="3840"
     inkscape:window-height="2092"
     inkscape:window-x="0"
     inkscape:window-y="32"
     inkscape:window-maximized="1"
     inkscape:current-layer="icon" />
  <defs
     id="defs1968">
    <style
       id="style1966">.cls-1{fill:none;}</style>
  </defs>
  <title
     id="title1970">eyedropper</title>
  <rect
     x="2"
     y="27"
     width="3"
     height="3"
     id="rect1972"
     style="fill:#999999;fill-opacity:1" />
  <path
     d="M29.71,7.29l-5-5a1,1,0,0,0-1.41,0h0L20,5.59l-1.29-1.3L17.29,5.71,18.59,7,8.29,17.29A1,1,0,0,0,8,18v1.59l-2.71,2.7a1,1,0,0,0,0,1.41h0l3,3a1,1,0,0,0,1.41,0h0L12.41,24H14a1,1,0,0,0,.71-.29L25,13.41l1.29,1.3,1.42-1.42L26.41,12l3.3-3.29a1,1,0,0,0,0-1.41ZM13.59,22h-2L9,24.59,7.41,23,10,20.41v-2l10-10L23.59,12ZM25,10.59,21.41,7,24,4.41,27.59,8Z"
     transform="translate(0 0)"
     id="path1974"
     style="fill:#999999;fill-opacity:1" />
  <rect
     id="_Transparent_Rectangle_"
     data-name="&lt;Transparent Rectangle&gt;"
     class="cls-1"
     width="32"
     height="32" />
</svg>
