<?xml version="1.0" encoding="UTF-8" standalone="no"?>
<!-- Generator: Adobe Illustrator 24.1.2, SVG Export Plug-In . SVG Version: 6.00 Build 0)  -->

<svg
   version="1.1"
   id="Layer_1"
   x="0px"
   y="0px"
   viewBox="0 0 16 16"
   xml:space="preserve"
   sodipodi:docname="commercial--financing--01.svg"
   width="16"
   height="16"
   inkscape:export-filename="../c5ead9cd/swap.svg"
   inkscape:export-xdpi="96"
   inkscape:export-ydpi="96"
   xmlns:inkscape="http://www.inkscape.org/namespaces/inkscape"
   xmlns:sodipodi="http://sodipodi.sourceforge.net/DTD/sodipodi-0.dtd"
   xmlns="http://www.w3.org/2000/svg"
   xmlns:svg="http://www.w3.org/2000/svg"><defs
   id="defs23" /><sodipodi:namedview
   id="namedview21"
   pagecolor="#505050"
   bordercolor="#eeeeee"
   borderopacity="1"
   inkscape:showpageshadow="0"
   inkscape:pageopacity="0"
   inkscape:pagecheckerboard="false"
   inkscape:deskcolor="#505050"
   showgrid="true"
   shape-rendering="auto"><inkscape:grid
     type="xygrid"
     id="grid386"
     originx="0"
     originy="0"
     dotted="false" /></sodipodi:namedview>

<rect
   id="_Transparent_Rectangle"
   style="fill:none"
   width="32"
   height="32"
   x="0"
   y="0" />
<g
   id="rect1001"><path
     id="path2746"
     style="color:#000000;fill:#999999;stroke-linecap:round;-inkscape-stroke:none"
     d="M 4.7949219,0.93554688 A 0.48002899,0.48002899 0 0 0 4.4414062,1.0390625 L 0.77148438,4.0097656 4.46875,6.9453125 A 0.48002899,0.48002899 0 0 0 5.1445312,6.8671875 0.48002899,0.48002899 0 0 0 5.0664062,6.1933594 L 3.25,4.7519531 c 2.0107987,0.00671 4.0109132,-0.017214 5.9980469,0.015625 C 10.368116,4.8549498 11.342367,6.0228065 11.25,7.1445312 l -0.002,0.03125 V 12.625 L 9.796875,10.814453 A 0.48002899,0.48002899 0 0 0 9.4746094,10.638672 0.48002899,0.48002899 0 0 0 9.1210938,10.740234 0.48002899,0.48002899 0 0 0 9.046875,11.416016 L 12,15.099609 14.953125,11.416016 a 0.48002899,0.48002899 0 0 0 -0.07422,-0.675782 0.48002899,0.48002899 0 0 0 -0.675781,0.07422 L 12.751953,12.625 V 7.2324219 C 12.894883,5.2453386 11.363437,3.4169562 9.3574219,3.265625 L 9.3359379,3.263675 H 9.3125 C 7.2758743,3.2292229 5.2504011,3.2548814 3.2363281,3.2480469 L 5.0449219,1.7851562 A 0.48002899,0.48002899 0 0 0 5.1171875,1.1113281 0.48002899,0.48002899 0 0 0 4.7949219,0.93554688 Z" /><g
     id="g2732" /></g></svg>
